<svg width="25" height="25" viewBox="0 0 25 25" fill="none" xmlns="http://www.w3.org/2000/svg">
<path d="M24.92 18.3998C24.89 18.2298 24.85 18.0798 24.82 17.9398C24.6 17.1398 23.9 16.5298 23.04 16.3898L17.49 15.4698C16.67 15.3298 15.85 15.6498 15.35 16.2898C15.28 16.3798 15.21 16.4698 15.15 16.5598C15.06 16.6898 14.88 16.8198 14.68 16.7298C11.8 15.4798 9.52 13.1998 8.27 10.3198C8.18 10.1198 8.3 9.94983 8.44 9.85983C8.56 9.77983 8.68 9.68983 8.79 9.59983C9.42 9.08983 9.73 8.27983 9.6 7.47983L8.74 2.02983C8.61 1.18983 8.03 0.509832 7.24 0.249832C7.05 0.189832 6.84 0.129832 6.59 0.0898322C4.97 -0.200168 3.31 0.249832 2.03 1.34983C0.689999 2.49983 -0.0500009 4.16983 -8.97096e-07 5.92983C0.279999 16.3398 8.66 24.7198 19.07 24.9998C19.12 24.9998 19.17 24.9998 19.23 24.9998C20.92 24.9998 22.51 24.2698 23.63 22.9798C24.73 21.6998 25.2 20.0298 24.92 18.3998ZM22.17 21.7198C21.4 22.6098 20.28 23.0898 19.12 23.0698C9.73 22.8198 2.18 15.2598 1.92 5.86983C1.89 4.69983 2.39 3.57983 3.29 2.80983C3.97 2.22983 4.78 1.91983 5.62 1.91983C5.83 1.91983 6.04 1.93983 6.26 1.97983C6.4 1.99983 6.53 2.03983 6.64 2.06983C6.75 2.10983 6.82 2.19983 6.84 2.31983L7.7 7.77983C7.72 7.89983 7.67 8.01983 7.58 8.09983C7.51 8.15983 7.43 8.20983 7.36 8.26983C6.42 8.90983 6.07 10.0698 6.51 11.0898C7.96 14.4198 10.59 17.0498 13.91 18.4898C14.93 18.9298 16.09 18.5798 16.73 17.6398C16.77 17.5798 16.81 17.5298 16.85 17.4698C16.92 17.3798 17.04 17.3398 17.16 17.3598L22.71 18.2798C22.83 18.2998 22.93 18.3698 22.95 18.4598C22.97 18.5398 22.99 18.6298 23.01 18.7298C23.21 19.7898 22.9 20.8798 22.17 21.7198Z" fill="white"/>
</svg>
