<svg width="37" height="37" viewBox="0 0 37 37" fill="none" xmlns="http://www.w3.org/2000/svg">
<path d="M18.3004 5.56805C14.9178 5.56805 12.1718 8.32358 12.1718 11.7157C12.1718 15.1079 14.9178 17.8539 18.3099 17.8539C21.7021 17.8539 24.4386 15.1079 24.4386 11.7157C24.4386 8.31407 21.6926 5.56805 18.3004 5.56805Z" fill="#033E8C"/>
<path d="M18.31 0.190002C8.20955 0.190002 0 8.39955 0 18.5C0 28.6004 8.20955 36.8099 18.31 36.8099C28.4104 36.8099 36.6199 28.6004 36.6199 18.5C36.6199 8.39955 28.4104 0.190002 18.31 0.190002ZM29.3415 31.1469C29.3415 30.5102 29.3415 30.0351 29.332 29.142C29.3225 28.6099 29.3035 28.0683 29.218 27.5457C28.8284 24.9992 27.6502 22.8898 25.6929 21.208C24.9137 20.5333 24.0395 20.0012 23.0609 19.5832C23.0609 19.6402 23.0609 19.6782 23.0704 19.7162C23.3174 20.8374 23.5455 21.9681 23.4979 23.1273C23.4979 23.2034 23.574 23.3079 23.6405 23.3744C23.9825 23.7355 24.3436 24.0775 24.6667 24.4481C25.3698 25.2747 25.9589 26.1679 26.2155 27.2416C26.5955 28.7999 25.8639 30.1492 24.3626 30.6528C24.0395 30.7573 23.726 30.6338 23.6025 30.3392C23.4694 30.0256 23.6025 29.7216 23.9255 29.5696C24.0015 29.5315 24.0776 29.5125 24.1536 29.4745C24.8662 29.161 25.2178 28.5719 25.1132 27.8497C25.0752 27.6027 25.0277 27.3556 24.9422 27.1276C24.4956 25.9494 23.6975 25.0372 22.7853 24.2105C22.7283 24.163 22.5763 24.163 22.5098 24.2105C21.9491 24.5431 21.379 24.8662 20.8564 25.2557C20.1913 25.7498 19.6117 26.3294 19.3172 27.1276C19.0796 27.7547 19.2126 28.2963 19.6972 28.7619C19.8207 28.8854 19.9728 28.9804 20.0963 29.104C20.3148 29.313 20.3338 29.6171 20.1533 29.8546C19.9823 30.0827 19.6687 30.1777 19.4122 30.0256C18.4715 29.465 17.9109 28.3913 18.0439 27.4126C18.1389 26.738 18.405 26.1394 18.8231 25.6168C19.6972 24.4956 20.8469 23.726 22.0917 23.0988C22.2627 23.0133 22.3482 22.9183 22.3197 22.7283C22.1677 21.7306 21.9967 20.7329 21.8731 19.7352C21.8066 19.2221 21.5311 19.0701 21.0655 18.9751C19.8398 18.7375 18.614 18.766 17.3788 18.7755C16.4951 18.785 15.621 18.918 14.7658 19.1556C14.6138 19.1936 14.5282 19.2696 14.4617 19.4216C13.7396 21.0654 13.236 22.7853 12.8749 24.5431C12.7704 25.0467 12.6849 25.5598 12.5899 26.0729C12.7134 26.1204 12.7989 26.1489 12.8844 26.1869C14.0342 26.662 14.6328 27.9352 14.2717 29.1135C13.8916 30.3202 12.6849 31.0328 11.4592 30.7668C10.433 30.5482 9.62532 29.6456 9.55881 28.6669C9.48279 27.4792 10.1004 26.5005 11.1836 26.1299C11.3451 26.0729 11.4212 26.0064 11.4592 25.8163C11.6207 24.9422 11.7632 24.0585 11.9818 23.2034C12.2668 22.0916 12.6089 21.0084 12.9319 19.9062C11.9818 20.3148 10.7465 21.2365 9.78685 22.3387C8.27606 24.0775 7.4019 26.1109 7.29738 28.4198C7.24987 29.5981 7.24987 30.2537 7.25937 31.1754C3.75321 28.0778 1.52029 23.5454 1.52029 18.5C1.52029 9.24521 9.05521 1.71029 18.31 1.71029C27.5647 1.71029 35.0996 9.24521 35.0996 18.5C35.0996 23.5454 32.8667 28.0683 29.3415 31.1469Z" fill="#033E8C"/>
<circle cx="31.936" cy="6.57722" r="4.68394" fill="#F2B807"/>
</svg>
