<svg width="43" height="43" viewBox="0 0 43 43" fill="none" xmlns="http://www.w3.org/2000/svg">
<path d="M21.4888 6.315C17.5169 6.315 14.2924 9.5506 14.2924 13.5337C14.2924 17.5169 17.5169 20.7413 21.5 20.7413C25.4831 20.7413 28.6964 17.5169 28.6964 13.5337C28.6964 9.53945 25.472 6.315 21.4888 6.315Z" fill="#033E8C"/>
<path d="M21.5 0C9.63985 0 0 9.63985 0 21.5C0 33.3601 9.63985 43 21.5 43C33.3601 43 43 33.3601 43 21.5C43 9.63985 33.3601 0 21.5 0ZM34.4536 36.3503C34.4536 35.6027 34.4536 35.0449 34.4424 33.9961C34.4312 33.3713 34.4089 32.7353 34.3085 32.1217C33.8511 29.1316 32.4676 26.6546 30.1692 24.6798C29.2543 23.8876 28.2278 23.2628 27.0786 22.7719C27.0786 22.8389 27.0786 22.8835 27.0898 22.9281C27.3799 24.2447 27.6476 25.5724 27.5919 26.9336C27.5919 27.0228 27.6811 27.1456 27.7592 27.2237C28.1609 27.6476 28.5848 28.0493 28.9642 28.4844C29.7898 29.4551 30.4816 30.5039 30.7828 31.7647C31.2291 33.5944 30.37 35.1788 28.6072 35.7701C28.2278 35.8928 27.8596 35.7478 27.7146 35.4019C27.5584 35.0337 27.7146 34.6767 28.0939 34.4982C28.1832 34.4536 28.2724 34.4312 28.3617 34.3866C29.1985 34.0184 29.6113 33.3267 29.4886 32.4787C29.444 32.1886 29.3882 31.8985 29.2878 31.6308C28.7634 30.2473 27.8262 29.1762 26.7551 28.2055C26.6881 28.1497 26.5096 28.1497 26.4315 28.2055C25.7732 28.596 25.1038 28.9753 24.4901 29.4328C23.7091 30.013 23.0285 30.6936 22.6827 31.6308C22.4037 32.3671 22.5599 33.0031 23.129 33.5498C23.274 33.6949 23.4525 33.8064 23.5976 33.9515C23.8542 34.1969 23.8765 34.554 23.6645 34.8329C23.4637 35.1007 23.0955 35.2122 22.7942 35.0337C21.6897 34.3755 21.0314 33.1147 21.1876 31.9655C21.2992 31.1733 21.6116 30.4704 22.1025 29.8568C23.129 28.5402 24.479 27.6365 25.9406 26.9001C26.1414 26.7997 26.2418 26.6881 26.2084 26.465C26.0298 25.2935 25.829 24.122 25.684 22.9504C25.6059 22.3479 25.2823 22.1694 24.7356 22.0579C23.2963 21.7789 21.857 21.8124 20.4066 21.8236C19.369 21.8347 18.3425 21.9909 17.3383 22.2698C17.1598 22.3145 17.0594 22.4037 16.9813 22.5823C16.1334 24.5125 15.542 26.5319 15.1181 28.596C14.9953 29.1873 14.8949 29.7898 14.7833 30.3923C14.9284 30.4481 15.0288 30.4816 15.1292 30.5262C16.4792 31.0841 17.1821 32.5791 16.7582 33.9626C16.3119 35.3796 14.8949 36.2164 13.4556 35.904C12.2506 35.6474 11.3023 34.5874 11.2242 33.4382C11.1349 32.0436 11.8601 30.8944 13.1321 30.4593C13.3217 30.3923 13.411 30.3142 13.4556 30.0911C13.6453 29.0646 13.8127 28.027 14.0693 27.0228C14.404 25.7174 14.8057 24.4455 15.185 23.1513C14.0693 23.631 12.6188 24.7133 11.492 26.0075C9.71796 28.0493 8.69149 30.4369 8.56876 33.1482C8.51297 34.5317 8.51297 35.3015 8.52413 36.3838C4.40711 32.7465 1.78516 27.4245 1.78516 21.5C1.78516 10.6328 10.6328 1.78516 21.5 1.78516C32.3671 1.78516 41.2148 10.6328 41.2148 21.5C41.2148 27.4245 38.5929 32.7353 34.4536 36.3503Z" fill="#033E8C"/>
</svg>
