<svg width="41" height="33" viewBox="0 0 41 33" fill="none" xmlns="http://www.w3.org/2000/svg">
<path d="M20.5 19L1.5 9V6.5C1.5 2.5 4.83333 1.5 6.5 1.5H34C37.6 1.5 39.1667 3.83333 39.5 5V9L20.5 19Z" fill="#E0B782"/>
<path d="M34.5938 0C36.2928 0 37.9222 0.668611 39.1237 1.85875C40.3251 3.04888 41 4.66305 41 6.34615V26.6538C41 28.337 40.3251 29.9511 39.1237 31.1413C37.9222 32.3314 36.2928 33 34.5938 33H6.40625C4.70721 33 3.07775 32.3314 1.87635 31.1413C0.674942 29.9511 0 28.337 0 26.6538V6.34615C0 4.66305 0.674942 3.04888 1.87635 1.85875C3.07775 0.668611 4.70721 0 6.40625 0H34.5938ZM38.4375 10.0548L21.1509 20.1325C20.9874 20.2276 20.8048 20.2855 20.616 20.3022C20.4272 20.3189 20.2371 20.2939 20.0592 20.229L19.8491 20.1325L2.5625 10.0599V26.6538C2.5625 27.6637 2.96747 28.6322 3.68831 29.3463C4.40915 30.0604 5.38682 30.4615 6.40625 30.4615H34.5938C35.6132 30.4615 36.5908 30.0604 37.3117 29.3463C38.0325 28.6322 38.4375 27.6637 38.4375 26.6538V10.0548ZM34.5938 2.53846H6.40625C5.38682 2.53846 4.40915 2.93963 3.68831 3.65371C2.96747 4.36779 2.5625 5.33629 2.5625 6.34615V7.11277L20.5 17.5662L38.4375 7.10769V6.34615C38.4375 5.33629 38.0325 4.36779 37.3117 3.65371C36.5908 2.93963 35.6132 2.53846 34.5938 2.53846Z" fill="white"/>
</svg>
